<?xml version="1.0" encoding="UTF-8"?>
<svg id="Capa_2" xmlns="http://www.w3.org/2000/svg" viewBox="0 0 398.11 398.11">
  <g id="Capa_1-2" data-name="Capa_1">
    <path d="M149.29,89.57v59.72h-59.72v-59.72h59.72ZM179.15,59.72H59.72v119.43h119.43V59.72ZM149.29,248.82v59.72h-59.72v-59.72h59.72ZM179.15,218.96H59.72v119.43h119.43v-119.43ZM308.53,89.57v59.72h-59.72v-59.72h59.72ZM338.39,59.72h-119.43v119.43h119.43V59.72ZM218.96,218.96h29.86v29.86h-29.86v-29.86ZM248.82,248.82h29.86v29.86h-29.86v-29.86ZM278.67,218.96h29.86v29.86h-29.86v-29.86ZM218.96,278.67h29.86v29.86h-29.86v-29.86ZM248.82,308.53h29.86v29.86h-29.86v-29.86ZM278.67,278.67h29.86v29.86h-29.86v-29.86ZM308.53,248.82h29.86v29.86h-29.86v-29.86ZM308.53,308.53h29.86v29.86h-29.86v-29.86ZM398.11,99.53h-39.81v-59.72h-59.71V0h70.73c15.91,0,28.8,12.89,28.8,28.8v70.73ZM398.11,369.31v-70.73h-39.81v59.72h-59.71v39.81h70.73c15.91,0,28.8-12.89,28.8-28.8ZM28.8,398.11h70.73v-39.81h-59.72v-59.72H0v70.73c0,15.91,12.89,28.8,28.8,28.8ZM0,28.8v70.73h39.81v-59.72h59.72V0H28.8C12.89,0,0,12.89,0,28.8Z"/>
  </g>
</svg>